PathFileType	4	(X/Y/Z)	/home/mitkof6/dev/sinergia_osimrl/data/02761/02761_PRE/experimental_data/static.trc
DataRate	CameraRate	NumFrames	NumMarkers	Units	OrigDataRate	OrigDataStartFrame	OrigNumFrames
100.000000	100.000000	4	45	mm	100.000000	23	189
Frame#	Time	C7			CLAV			LANK			LASI			LBHD			LELB			LFHD			LFIN			LHEE			LKNE			LKNI			LMED			LMET			LMIF			LPSI			LSHO			LTHI			LTIB			LTOE			LTTU			LWRA			LWRB			RANK			RASI			RBAK			RBHD			RELB			RFHD			RFIN			RHEE			RKNE			RKNI			RMED			RMET			RMIF			RPSI			RSHO			RTHI			RTIB			RTOE			RTTU			RWRA			RWRB			STRN			T10			
		X1	Y1	Z1	X2	Y2	Z2	X3	Y3	Z3	X4	Y4	Z4	X5	Y5	Z5	X6	Y6	Z6	X7	Y7	Z7	X8	Y8	Z8	X9	Y9	Z9	X10	Y10	Z10	X11	Y11	Z11	X12	Y12	Z12	X13	Y13	Z13	X14	Y14	Z14	X15	Y15	Z15	X16	Y16	Z16	X17	Y17	Z17	X18	Y18	Z18	X19	Y19	Z19	X20	Y20	Z20	X21	Y21	Z21	X22	Y22	Z22	X23	Y23	Z23	X24	Y24	Z24	X25	Y25	Z25	X26	Y26	Z26	X27	Y27	Z27	X28	Y28	Z28	X29	Y29	Z29	X30	Y30	Z30	X31	Y31	Z31	X32	Y32	Z32	X33	Y33	Z33	X34	Y34	Z34	X35	Y35	Z35	X36	Y36	Z36	X37	Y37	Z37	X38	Y38	Z38	X39	Y39	Z39	X40	Y40	Z40	X41	Y41	Z41	X42	Y42	Z42	X43	Y43	Z43	X44	Y44	Z44	X45	Y45	Z45	

24	0.23	265.8970031738281	1211.590942382812	-284.1130065917966	379.6520080566406	1143.840942382812	-278.3749999999998	249.6410064697266	59.95600128173837	-431.7999877929688	350.1499938964844	818.5750122070314	-383.5820007324217	293.6539916992188	1339.672973632812	-349.4760131835935	317.8919982910156	943.3989868164064	-540.9039916992185	419.0530090332031	1352.058959960938	-326.9800109863278	438.8080139160156	712.2160034179689	-667.5830078124999	194.9660034179688	34.85800170898447	-405.4869995117188	278.3729858398438	440.7919921875001	-423.8609924316405	250.7749938964844	416.9249877929688	-304.772003173828	245.3789978027344	65.21199798583993	-357.3779907226562	344.7659912109375	27.92399978637705	-431.9349975585938	303.5260009765625	65.19999694824227	-383.7049865722656	230.9589996337891	877.2429809570314	-309.9609985351561	306.9909973144531	1165.317016601562	-413.0289916992185	270.9089965820312	580.9869995117189	-470.0690002441405	254.6529998779297	249.0899963378907	-486.8540039062499	361.68798828125	41.96699905395516	-389.1679992675781	312.8479919433594	359.9490051269532	-364.0849914550781	433.8670043945312	751.3619995117189	-608.6840209960936	380.7820129394531	746.2020263671876	-648.6740112304686	249.3249969482422	54.49100112915041	-111.7539978027344	373.25	804.9349975585938	-183.6779937744139	247.3509979248047	1089.458984375	-178.9380035400388	255.25	1320.383056640625	-248.3480072021482	309.0020141601562	961.4199829101562	-26.50499916076639	393.4949951171875	1339.885009765625	-204.4640045166013	360.3290100097656	733.7860107421875	105.5889968872072	215.6569976806641	26.71500015258793	-161.1759948730469	272.9700012207031	434.8989868164063	-130.0310058593749	282.3450012207031	405.6889953613282	-248.6529998779296	287.3320007324219	63.57600021362309	-176.8359985351562	336.2659912109375	29.0900001525879	-63.86500167846679	310.2520141601562	71.18599700927737	-128.3710021972656	239.8569946289062	875.1790161132812	-223.4530029296873	309.4320068359375	1198.66796875	-148.9770050048826	296.0020141601562	571.9970092773438	-86.32599639892565	235.7640075683594	230.1909942626953	-70.79900360107416	366.7239990234375	43.31100082397463	-92.97799682617186	316.4660034179688	354.1440124511719	-166.7270050048827	333.3479919433594	766.1279907226562	62.39799880981462	389.7839965820312	776.5800170898438	65.29599761962908	418.3770141601562	1011.804016113281	-270.8949890136716	255.97900390625	959.0729980468751	-266.898986816406	
25	0.24	266.0180053710938	1211.567016601562	-284.0830078124997	379.7080078125	1143.802978515625	-278.325012207031	249.6340026855469	59.94900131225595	-431.7950134277344	350.2030029296875	818.5479736328126	-383.553009033203	293.7860107421875	1339.655029296875	-349.4729919433591	317.9169921875	943.3369750976564	-540.8519897460935	419.1849975585938	1352.017944335938	-326.9649963378903	438.7699890136719	712.1619873046876	-667.6090087890624	194.9640045166016	34.85699844360361	-405.4830017089844	278.3479919433594	440.7829895019532	-423.8599853515624	250.7920074462891	416.9140014648438	-304.7579956054686	245.3739929199219	65.21099853515634	-357.3819885253906	344.7650146484375	27.92000007629404	-431.9280090332031	303.5599975585938	65.25000000000009	-383.72900390625	231.0670013427734	877.2360229492189	-309.9190063476561	307.0379943847656	1165.27001953125	-412.9849853515622	270.7260131835938	580.9520263671876	-470.0660095214843	254.6340026855469	249.0930023193361	-486.8410034179687	361.6849975585938	41.96699905395516	-389.1610107421875	312.8320007324219	359.9320068359376	-364.0859985351562	433.8770141601562	751.3120117187501	-608.7089843749999	380.7640075683594	746.1439819335939	-648.6539916992186	249.3209991455078	54.49100112915041	-111.7509994506836	373.2879943847656	804.9110107421875	-183.626998901367	247.4530029296875	1089.448974609375	-178.9140014648435	255.3769989013672	1320.375	-248.3399963378903	309.0570068359375	961.469970703125	-26.40600013732889	393.6170043945312	1339.859985351562	-204.4470062255857	360.4750061035156	733.93701171875	105.8619995117189	215.64599609375	26.71800041198734	-161.1759948730469	272.9150085449219	434.9070129394532	-130.0030059814452	282.3160095214844	405.6919860839844	-248.6239929199218	287.3290100097656	63.58399963378911	-176.8320007324219	336.2560119628906	29.08499908447267	-63.85499954223632	310.2449951171875	71.17600250244143	-128.3630065917968	239.906005859375	875.2020263671875	-223.4409942626951	309.4869995117188	1198.675048828125	-148.9559936523435	295.8829956054688	571.9990234375	-86.2919998168944	235.7180023193359	230.1820068359375	-70.7880020141601	366.7439880371094	43.32400131225588	-92.9980010986328	316.4179992675781	354.1380004882813	-166.6869964599609	333.4530029296875	766.301025390625	62.59600067138689	389.864013671875	776.6380004882812	65.6210021972658	418.4309997558594	1011.783020019531	-270.8370056152341	256.0750122070312	959.0650024414064	-266.8640136718748	
26	0.25	266.1270141601562	1211.5400390625	-284.0620117187497	379.7680053710938	1143.766967773438	-278.2780151367185	249.6300048828125	59.94400024414072	-431.7909851074219	350.2510070800781	818.5209960937501	-383.5299987792967	293.9159851074219	1339.630981445312	-349.4670104980466	317.9549865722656	943.2760009765626	-540.8010253906248	419.31298828125	1351.970947265625	-326.9419860839841	438.7340087890625	712.0930175781251	-667.6220092773436	194.9589996337891	34.847999572754	-405.4809875488281	278.3179931640625	440.7709960937501	-423.8619995117186	250.8040008544922	416.9030151367188	-304.751007080078	245.3690032958984	65.20899963378915	-357.3789978027344	344.760009765625	27.91200065612803	-431.9219970703125	303.56201171875	65.25099945068368	-383.72900390625	231.1799926757812	877.2280273437501	-309.8749999999998	307.0950012207031	1165.218017578125	-412.9450073242185	270.5409851074219	580.9190063476564	-470.0669860839843	254.6080017089844	249.0930023193361	-486.8320007324218	361.6789855957031	41.96699905395516	-389.156005859375	312.8110046386719	359.9140014648438	-364.0929870605468	433.8789978027344	751.2459716796876	-608.7139892578124	380.7550048828125	746.0839843750001	-648.6329956054686	249.3190002441406	54.48699951171877	-111.7470016479492	373.3240051269531	804.8829956054688	-183.5879974365233	247.5330047607422	1089.43798828125	-178.9069976806638	255.5180053710938	1320.363037109375	-248.3280029296872	309.1090087890625	961.5230102539062	-26.30400085449197	393.7340087890625	1339.8349609375	-204.419006347656	360.6019897460938	734.0880126953125	106.1409988403322	215.6360015869141	26.71599960327152	-161.1750030517578	272.8659973144531	434.9079895019532	-129.9830017089843	282.2860107421875	405.6919860839844	-248.5970001220702	287.3269958496094	63.59199905395512	-176.8300018310547	336.2489929199219	29.07500076293947	-63.8479995727539	310.2359924316406	71.16699981689456	-128.3560028076172	239.9649963378906	875.2109985351562	-223.4329986572264	309.5419921875	1198.676025390625	-148.9329986572263	295.7900085449219	571.9940185546875	-86.25900268554675	235.6750030517578	230.1730041503907	-70.7829971313476	366.7439880371094	43.32099914550783	-92.99500274658202	316.3699951171875	354.1300048828126	-166.6529998779296	333.5509948730469	766.510009765625	62.78900146484392	389.9559936523438	776.7369995117188	65.92099761962908	418.4859924316406	1011.757019042969	-270.7850036621091	256.1730041503906	959.0560302734376	-266.8320007324216	
27	0.26	266.2330017089844	1211.515991210938	-284.0459899902341	379.8280029296875	1143.732055664062	-278.2390136718748	249.6280059814453	59.94400024414072	-431.7900085449219	350.2959899902344	818.4990234375001	-383.5159912109373	294.0440063476562	1339.607055664062	-349.460998535156	318.0029907226562	943.2150268554689	-540.7540283203123	419.4389953613281	1351.920043945312	-326.9100036621091	438.7009887695312	712.0130004882814	-667.6229858398436	194.9539947509766	34.8380012512208	-405.4800109863281	278.2829895019531	440.759002685547	-423.8670043945311	250.8099975585938	416.8919982910157	-304.751007080078	245.3650054931641	65.20700073242196	-357.3710021972656	344.7529907226562	27.90200042724619	-431.9200134277344	303.531005859375	65.19999694824227	-383.7080078125	231.2839965820312	877.2210083007814	-309.8359985351561	307.1619873046875	1165.162963867188	-412.9150085449216	270.3659973144531	580.8950195312501	-470.0710144042968	254.5749969482422	249.0930023193361	-486.8259887695312	361.6749877929688	41.96699905395516	-389.156005859375	312.7909851074219	359.8999938964844	-364.1090087890624	433.8760070800781	751.1680297851564	-608.7030029296874	380.7479858398438	746.0209960937501	-648.6140136718749	249.3159942626953	54.47900009155276	-111.7429962158203	373.3619995117188	804.85498046875	-183.563995361328	247.5930023193359	1089.427978515625	-178.9080047607419	255.6670074462891	1320.350952148438	-248.3220062255857	309.1619873046875	961.5789794921875	-26.19700050353983	393.8460083007812	1339.817016601562	-204.3820037841794	360.7120056152344	734.2410278320312	106.4209976196291	215.6300048828125	26.70999908447269	-161.1710052490234	272.8240051269531	434.9079895019532	-129.9720001220702	282.2539978027344	405.6889953613282	-248.5729980468749	287.3240051269531	63.59899902343754	-176.8280029296875	336.2449951171875	29.0639991760254	-63.84500122070312	310.2279968261719	71.16300201416018	-128.3500061035156	240.0200042724609	875.2100219726562	-223.4239959716795	309.5960083007812	1198.671997070312	-148.9120025634763	295.7319946289062	571.9849853515625	-86.22799682617175	235.6390075683594	230.166000366211	-70.77999877929682	366.7420043945312	43.31900024414065	-92.98899841308592	316.3309936523438	354.1239929199219	-166.6280059814452	333.64599609375	766.7369995117188	62.98899841308611	390.0530090332031	776.8679809570312	66.19699859619158	418.5450134277344	1011.726013183594	-270.7409973144529	256.27099609375	959.0479736328126	-266.804992675781	
